<svg xmlns="http://www.w3.org/2000/svg" xml:space="preserve" id="loader-1" width="40" height="40" x="0" y="0" version="1.1"><path fill="#fff" d="M20.201 5.169c-8.254 0-14.946 6.692-14.946 14.946 0 8.255 6.692 14.946 14.946 14.946s14.946-6.691 14.946-14.946c-.001-8.254-6.692-14.946-14.946-14.946m0 26.58c-6.425 0-11.634-5.208-11.634-11.634 0-6.425 5.209-11.634 11.634-11.634s11.633 5.209 11.633 11.634-5.208 11.634-11.633 11.634" opacity=".2"/><path fill="#fff" d="m26.013 10.047 1.654-2.866a14.86 14.86 0 0 0-7.466-2.012v3.312c2.119 0 4.1.576 5.812 1.566"><animateTransform attributeName="transform" attributeType="xml" dur="0.5s" from="0 20 20" repeatCount="indefinite" to="360 20 20" type="rotate"/></path></svg>