<svg version="1.1" xmlns="http://www.w3.org/2000/svg" xmlns:xlink="http://www.w3.org/1999/xlink" x="0px" y="0px" viewBox="0 0 512 512" width="1024" height="1024" xml:space="preserve">
  <path fill="#3585fa" d="M93.867,51.2H8.533C3.814,51.2,0,55.014,0,59.733v85.333c0,4.719,3.814,8.533,8.533,8.533s8.533-3.814,8.533-8.533v-76.8 h76.8c4.719,0,8.533-3.814,8.533-8.533S98.586,51.2,93.867,51.2z" />
  <path fill="#3585fa" d="M503.467,51.2h-85.333c-4.719,0-8.533,3.814-8.533,8.533s3.814,8.533,8.533,8.533h76.8v76.8c0,4.719,3.814,8.533,8.533,8.533c4.719,0,8.533-3.814,8.533-8.533V59.733C512,55.014,508.186,51.2,503.467,51.2z" />
  <path fill="#3585fa" d="M503.467,358.4c-4.719,0-8.533,3.814-8.533,8.533v76.8h-76.8c-4.719,0-8.533,3.814-8.533,8.533s3.814,8.533,8.533,8.533h85.333c4.719,0,8.533-3.814,8.533-8.533v-85.333C512,362.214,508.186,358.4,503.467,358.4z" />
  <path fill="#3585fa" d="M93.867,443.733h-76.8v-76.8c0-4.719-3.814-8.533-8.533-8.533S0,362.214,0,366.933v85.333c0,4.719,3.814,8.533,8.533,8.533h85.333c4.719,0,8.533-3.814,8.533-8.533S98.586,443.733,93.867,443.733z" />
  <path fill="#3585fa" d="M503.467,247.467H8.533C3.814,247.467,0,251.281,0,256s3.814,8.533,8.533,8.533h494.933c4.719,0,8.533-3.814,8.533-8.533S508.186,247.467,503.467,247.467z" />
  <path fill="#363636" d="M119.467,119.467c-4.71,0-8.533,3.823-8.533,8.533v93.867c0,4.71,3.823,8.533,8.533,8.533s8.533-3.823,8.533-8.533V128C128,123.29,124.177,119.467,119.467,119.467z" />
  <path fill="#363636" d="M153.6,119.467c-4.71,0-8.533,3.823-8.533,8.533v93.867c0,4.71,3.823,8.533,8.533,8.533c4.71,0,8.533-3.823,8.533-8.533V128C162.133,123.29,158.31,119.467,153.6,119.467z" />
  <path fill="#363636" d="M187.733,119.467c-4.71,0-8.533,3.823-8.533,8.533v93.867c0,4.71,3.823,8.533,8.533,8.533s8.533-3.823,8.533-8.533V128C196.267,123.29,192.444,119.467,187.733,119.467z" />
  <path fill="#363636" d="M221.867,119.467c-4.71,0-8.533,3.823-8.533,8.533v93.867c0,4.71,3.823,8.533,8.533,8.533c4.71,0,8.533-3.823,8.533-8.533V128C230.4,123.29,226.577,119.467,221.867,119.467z" />
  <path fill="#363636" d="M256,119.467c-4.71,0-8.533,3.823-8.533,8.533v93.867c0,4.71,3.823,8.533,8.533,8.533s8.533-3.823,8.533-8.533V128C264.533,123.29,260.71,119.467,256,119.467z" />
  <path fill="#363636" d="M290.133,119.467c-4.71,0-8.533,3.823-8.533,8.533v93.867c0,4.71,3.823,8.533,8.533,8.533s8.533-3.823,8.533-8.533V128C298.667,123.29,294.844,119.467,290.133,119.467z" />
  <path fill="#363636" d="M324.267,119.467c-4.71,0-8.533,3.823-8.533,8.533v93.867c0,4.71,3.823,8.533,8.533,8.533s8.533-3.823,8.533-8.533V128C332.8,123.29,328.977,119.467,324.267,119.467z" />
  <path fill="#363636" d="M358.4,119.467c-4.71,0-8.533,3.823-8.533,8.533v93.867c0,4.71,3.823,8.533,8.533,8.533s8.533-3.823,8.533-8.533V128C366.933,123.29,363.11,119.467,358.4,119.467z" />
  <path fill="#363636" d="M392.533,119.467c-4.71,0-8.533,3.823-8.533,8.533v93.867c0,4.71,3.823,8.533,8.533,8.533c4.71,0,8.533-3.823,8.533-8.533V128C401.067,123.29,397.244,119.467,392.533,119.467z" />
  <path fill="#363636" d="M119.467,281.6c-4.71,0-8.533,3.823-8.533,8.533v110.933c0,4.71,3.823,8.533,8.533,8.533s8.533-3.823,8.533-8.533V290.133C128,285.423,124.177,281.6,119.467,281.6z" />
  <path fill="#363636" d="M153.6,281.6c-4.71,0-8.533,3.823-8.533,8.533V384c0,4.71,3.823,8.533,8.533,8.533c4.71,0,8.533-3.823,8.533-8.533v-93.867C162.133,285.423,158.31,281.6,153.6,281.6z" />
  <path fill="#363636" d="M187.733,281.6c-4.71,0-8.533,3.823-8.533,8.533V384c0,4.71,3.823,8.533,8.533,8.533s8.533-3.823,8.533-8.533v-93.867C196.267,285.423,192.444,281.6,187.733,281.6z" />
  <path fill="#363636" d="M221.867,281.6c-4.71,0-8.533,3.823-8.533,8.533V384c0,4.71,3.823,8.533,8.533,8.533c4.71,0,8.533-3.823,8.533-8.533v-93.867C230.4,285.423,226.577,281.6,221.867,281.6z" />
  <path fill="#363636" d="M256,281.6c-4.71,0-8.533,3.823-8.533,8.533V384c0,4.71,3.823,8.533,8.533,8.533s8.533-3.823,8.533-8.533v-93.867C264.533,285.423,260.71,281.6,256,281.6z" />
  <path fill="#363636" d="M290.133,281.6c-4.71,0-8.533,3.823-8.533,8.533V384c0,4.71,3.823,8.533,8.533,8.533s8.533-3.823,8.533-8.533v-93.867C298.667,285.423,294.844,281.6,290.133,281.6z" />
  <path fill="#363636" d="M324.267,281.6c-4.71,0-8.533,3.823-8.533,8.533V384c0,4.71,3.823,8.533,8.533,8.533S332.8,388.71,332.8,384v-93.867C332.8,285.423,328.977,281.6,324.267,281.6z" />
  <path fill="#363636" d="M358.4,281.6c-4.71,0-8.533,3.823-8.533,8.533V384c0,4.71,3.823,8.533,8.533,8.533s8.533-3.823,8.533-8.533v-93.867C366.933,285.423,363.11,281.6,358.4,281.6z" />
  <path fill="#363636" d="M392.533,281.6c-4.71,0-8.533,3.823-8.533,8.533v110.933c0,4.71,3.823,8.533,8.533,8.533c4.71,0,8.533-3.823,8.533-8.533V290.133C401.067,285.423,397.244,281.6,392.533,281.6z" />
</svg>
